<?xml version="1.0" standalone="no"?>
<!DOCTYPE svg PUBLIC "-//W3C//DTD SVG 20010904//EN"
 "http://www.w3.org/TR/2001/REC-SVG-20010904/DTD/svg10.dtd">
<svg version="1.0" xmlns="http://www.w3.org/2000/svg"
 width="3424.000000pt" height="2413.000000pt" viewBox="0 0 3424.000000 2413.000000"
 preserveAspectRatio="xMidYMid meet">

<g transform="translate(0.000000,2413.000000) scale(0.100000,-0.100000)"
fill="#000000" stroke="none">
<path d="M27305 21132 c-62 -21 -89 -40 -120 -82 -113 -152 -60 -448 129 -733
182 -274 493 -487 711 -487 301 0 708 365 853 765 43 119 55 292 26 378 -23
68 -84 132 -150 156 -69 26 -130 26 -218 1 -144 -41 -285 -130 -424 -267 -46
-46 -86 -83 -88 -83 -2 0 -42 38 -89 85 -138 137 -277 224 -421 265 -84 24
-143 25 -209 2z"/>
<path d="M27765 19634 c-316 -25 -833 -141 -1040 -234 -11 -5 -49 -21 -85 -36
-231 -94 -392 -221 -469 -369 -63 -121 -62 -269 2 -390 37 -70 138 -175 218
-228 299 -195 822 -336 1439 -388 150 -13 458 -7 585 12 327 46 633 126 840
218 176 79 415 207 415 223 0 11 -175 112 -276 159 -441 206 -860 299 -1344
299 -350 0 -577 -35 -885 -135 -160 -53 -252 -92 -239 -104 25 -24 351 -142
509 -185 59 -16 182 -44 280 -64 158 -33 504 -72 645 -72 93 0 80 -11 -50 -42
-86 -21 -119 -23 -350 -23 -259 0 -316 6 -525 51 -173 37 -453 120 -542 160
-17 8 -35 14 -41 14 -17 0 -207 86 -247 113 -77 50 -127 107 -139 160 -21 87
59 189 196 251 112 51 114 52 188 74 330 99 636 145 1065 158 612 19 1237 -97
1624 -303 287 -152 459 -362 492 -601 14 -99 5 -199 -33 -397 -88 -457 -272
-863 -530 -1170 -240 -285 -556 -484 -913 -574 -179 -45 -280 -56 -515 -55
-244 1 -373 17 -557 70 -437 125 -794 413 -1046 843 -107 182 -172 327 -251
564 -53 158 -80 206 -138 244 l-42 28 -182 0 c-206 0 -217 -3 -261 -81 -34
-58 -31 -96 23 -299 172 -647 563 -1208 1089 -1562 147 -99 332 -196 466 -244
35 -12 69 -25 74 -29 10 -7 215 -64 320 -89 85 -21 385 -51 503 -51 190 0 494
38 637 81 17 4 64 18 105 30 106 31 226 80 365 151 223 112 403 245 601 442
208 208 367 430 500 696 65 131 73 151 149 345 116 294 287 495 525 615 97 49
182 70 282 70 107 0 176 -23 232 -77 62 -61 81 -112 81 -223 0 -82 -4 -103
-26 -150 -40 -83 -112 -173 -200 -249 -74 -64 -194 -139 -206 -128 -2 3 29 41
69 85 75 80 175 218 165 228 -18 18 -292 -76 -417 -143 -206 -111 -435 -349
-609 -636 -40 -66 -101 -176 -101 -183 0 -10 106 -2 200 16 251 46 392 91 586
186 264 131 537 399 661 649 65 129 77 187 78 345 0 127 -3 154 -23 213 -78
225 -235 381 -477 475 -39 15 -196 42 -245 42 -102 0 -281 -45 -381 -96 l-49
-24 -9 22 c-5 13 -12 39 -15 58 -46 230 -221 493 -451 679 -297 242 -758 427
-1265 510 -285 47 -360 53 -675 56 -170 1 -332 1 -360 -1z"/>
<path d="M18915 19042 c-62 -21 -89 -40 -120 -82 -113 -152 -60 -448 129 -733
182 -274 493 -487 711 -487 301 0 708 365 853 765 43 119 55 292 26 378 -23
68 -84 132 -150 156 -69 26 -130 26 -218 1 -144 -41 -285 -130 -424 -267 -46
-46 -86 -83 -88 -83 -2 0 -42 38 -89 85 -138 137 -277 224 -421 265 -84 24
-143 25 -209 2z"/>
<path d="M6345 17980 c-205 -53 -299 -102 -399 -205 -50 -52 -116 -144 -116
-162 0 -6 -9 -22 -20 -35 -10 -14 -24 -43 -29 -64 -5 -22 -16 -57 -25 -79 -8
-22 -15 -58 -16 -81 0 -22 -7 -63 -15 -90 -17 -56 -20 -227 -5 -289 6 -22 14
-80 20 -130 11 -104 44 -249 71 -317 10 -26 19 -56 19 -68 0 -11 9 -38 20 -60
11 -22 20 -49 20 -61 0 -12 8 -36 19 -53 10 -17 22 -42 26 -56 4 -14 33 -79
65 -145 32 -66 64 -131 69 -145 6 -14 20 -38 31 -55 10 -16 35 -59 55 -95 20
-36 62 -102 93 -148 32 -46 66 -98 77 -116 66 -107 266 -345 445 -530 108
-110 318 -293 420 -365 137 -96 194 -132 275 -178 379 -214 666 -292 978 -265
133 11 295 46 352 76 17 9 35 16 41 16 18 0 112 39 213 89 177 86 365 208 556
360 117 92 379 347 480 465 28 32 71 83 98 113 26 29 47 57 47 61 0 5 8 17 18
28 36 40 101 130 113 157 7 15 16 27 20 27 4 0 14 11 21 24 23 44 137 231 146
242 13 15 152 287 152 297 0 9 41 103 65 150 8 16 15 36 15 45 0 9 11 40 25
67 13 28 25 60 25 72 0 12 8 44 19 70 10 26 21 71 25 98 4 28 13 73 21 100 7
28 20 124 28 215 14 155 14 174 -3 310 -22 169 -35 212 -97 337 -71 142 -202
264 -338 315 -162 61 -198 68 -336 68 -122 0 -142 -3 -302 -44 -95 -25 -201
-58 -237 -74 -36 -16 -82 -35 -104 -42 -21 -7 -53 -22 -71 -34 -18 -11 -73
-42 -122 -69 -102 -55 -102 -55 -208 -126 -228 -155 -424 -327 -671 -594 -50
-53 -89 -87 -101 -87 -12 0 -40 23 -69 57 -102 119 -357 365 -491 474 -50 41
-197 149 -223 163 -10 6 -54 33 -97 60 -43 27 -94 57 -113 68 -19 10 -42 23
-50 28 -63 39 -337 148 -430 170 -179 44 -224 50 -342 49 -68 -1 -136 -5 -153
-9z"/>
<path d="M19375 17544 c-316 -25 -833 -141 -1040 -234 -11 -5 -49 -21 -85 -36
-231 -94 -392 -221 -469 -369 -63 -121 -62 -269 2 -390 37 -70 138 -175 218
-228 299 -195 822 -336 1439 -388 150 -13 458 -7 585 12 327 46 633 126 840
218 176 79 415 207 415 223 0 11 -175 112 -276 159 -441 206 -860 299 -1344
299 -350 0 -577 -35 -885 -135 -160 -53 -252 -92 -239 -104 25 -24 351 -142
509 -185 59 -16 182 -44 280 -64 158 -33 504 -72 645 -72 93 0 80 -11 -50 -42
-86 -21 -119 -23 -350 -23 -259 0 -316 6 -525 51 -173 37 -453 120 -542 160
-17 8 -35 14 -41 14 -17 0 -207 86 -247 113 -77 50 -127 107 -139 160 -21 87
59 189 196 251 112 51 114 52 188 74 330 99 636 145 1065 158 612 19 1237 -97
1624 -303 287 -152 459 -362 492 -601 14 -99 5 -199 -33 -397 -88 -457 -272
-863 -530 -1170 -240 -285 -556 -484 -913 -574 -179 -45 -280 -56 -515 -55
-244 1 -373 17 -557 70 -437 125 -794 413 -1046 843 -107 182 -172 327 -251
564 -53 158 -80 206 -138 244 l-42 28 -182 0 c-206 0 -217 -3 -261 -81 -34
-58 -31 -96 23 -299 172 -647 563 -1208 1089 -1562 147 -99 332 -196 466 -244
35 -12 69 -25 74 -29 10 -7 215 -64 320 -89 85 -21 385 -51 503 -51 190 0 494
38 637 81 17 4 64 18 105 30 106 31 226 80 365 151 223 112 403 245 601 442
208 208 367 430 500 696 65 131 73 151 149 345 116 294 287 495 525 615 97 49
182 70 282 70 107 0 176 -23 232 -77 62 -61 81 -112 81 -223 0 -82 -4 -103
-26 -150 -40 -83 -112 -173 -200 -249 -74 -64 -194 -139 -206 -128 -2 3 29 41
69 85 75 80 175 218 165 228 -18 18 -292 -76 -417 -143 -206 -111 -435 -349
-609 -636 -40 -66 -101 -176 -101 -183 0 -10 106 -2 200 16 251 46 392 91 586
186 264 131 537 399 661 649 65 129 77 187 78 345 0 127 -3 154 -23 213 -78
225 -235 381 -477 475 -39 15 -196 42 -245 42 -102 0 -281 -45 -381 -96 l-49
-24 -9 22 c-5 13 -12 39 -15 58 -46 230 -221 493 -451 679 -297 242 -758 427
-1265 510 -285 47 -360 53 -675 56 -170 1 -332 1 -360 -1z"/>
<path d="M7955 13634 c-22 -2 -170 -13 -330 -24 -159 -11 -321 -25 -360 -31
-38 -6 -124 -17 -190 -24 -156 -17 -332 -42 -420 -60 -38 -8 -116 -21 -173
-30 -57 -8 -108 -17 -113 -21 -5 -3 -49 -12 -97 -20 -48 -7 -105 -18 -127 -23
-115 -29 -188 -45 -258 -57 -44 -7 -84 -18 -91 -23 -7 -6 -32 -13 -56 -16 -25
-4 -72 -15 -105 -25 -33 -10 -82 -23 -110 -28 -27 -6 -70 -17 -95 -25 -25 -8
-79 -24 -120 -36 -41 -12 -95 -29 -120 -38 -25 -8 -61 -19 -80 -23 -19 -4 -51
-14 -70 -22 -19 -9 -53 -20 -75 -26 -22 -5 -69 -21 -105 -35 -36 -14 -108 -39
-160 -57 -52 -18 -112 -41 -132 -51 -20 -11 -43 -19 -50 -19 -7 0 -30 -9 -51
-20 -20 -11 -42 -20 -48 -20 -11 0 -68 -25 -291 -129 -48 -23 -94 -41 -102
-41 -8 0 -18 -5 -21 -10 -4 -6 -46 -29 -93 -52 -48 -23 -93 -48 -100 -55 -7
-7 -18 -13 -24 -13 -5 0 -22 -9 -36 -21 -15 -11 -74 -51 -132 -89 -57 -38
-120 -83 -140 -100 -19 -17 -53 -44 -75 -61 -51 -39 -166 -152 -225 -220 -87
-102 -150 -183 -150 -195 0 -6 -6 -16 -13 -22 -7 -6 -33 -53 -58 -104 -74
-151 -89 -184 -89 -202 0 -9 -10 -44 -22 -78 -19 -57 -22 -84 -22 -273 -1
-269 14 -336 121 -550 20 -38 48 -89 64 -113 16 -24 29 -45 29 -48 0 -12 147
-183 199 -232 105 -98 300 -255 370 -297 9 -5 31 -20 48 -32 17 -13 34 -23 37
-23 3 0 29 -15 58 -34 75 -47 357 -191 458 -233 47 -19 90 -38 95 -43 11 -9
121 -52 177 -70 21 -6 40 -16 43 -21 4 -5 15 -9 27 -9 11 0 34 -7 51 -15 33
-15 77 -31 237 -84 52 -17 109 -36 125 -42 17 -6 59 -19 95 -29 36 -11 85 -25
110 -33 54 -17 111 -32 205 -53 38 -8 74 -19 80 -23 5 -5 42 -14 80 -20 39 -7
90 -18 115 -26 25 -7 65 -17 90 -20 25 -4 53 -12 63 -17 10 -5 55 -15 100 -23
45 -8 136 -26 202 -41 66 -14 147 -30 180 -35 33 -6 98 -17 145 -26 47 -9 130
-21 185 -28 55 -7 120 -18 145 -24 25 -6 86 -15 135 -21 50 -5 126 -17 170
-25 44 -8 107 -15 140 -15 34 0 126 -9 205 -19 80 -11 204 -22 275 -25 72 -3
168 -11 215 -18 116 -16 919 -17 1015 0 39 6 136 14 215 18 80 3 199 15 265
25 66 10 145 19 175 19 30 1 84 7 120 16 36 8 111 21 167 28 56 8 106 17 111
20 9 5 163 33 333 60 41 7 82 16 89 21 8 5 53 17 100 26 47 10 112 25 145 33
59 16 79 21 245 69 47 14 102 28 124 32 21 3 46 10 55 15 26 15 166 60 185 60
9 0 33 7 54 17 20 9 84 33 142 53 58 20 148 54 200 75 52 20 118 46 145 57 28
11 68 28 91 39 22 10 44 19 49 19 4 0 32 11 61 25 30 14 77 36 106 49 339 155
382 177 715 365 69 39 235 144 256 161 16 14 -8 42 -67 80 -33 22 -66 43 -71
48 -9 7 -55 34 -189 111 -137 78 -311 167 -551 281 -153 72 -181 85 -255 114
-36 15 -83 35 -105 45 -22 10 -56 24 -75 31 -19 6 -48 17 -65 22 -43 15 -125
48 -160 64 -16 7 -73 27 -125 44 -52 17 -117 40 -145 50 -27 10 -84 28 -125
40 -41 12 -97 30 -125 40 -27 10 -68 21 -90 25 -22 4 -53 13 -70 20 -16 7 -48
16 -70 19 -22 4 -65 15 -95 25 -54 18 -101 30 -230 55 -36 7 -90 20 -120 29
-30 8 -82 20 -115 25 -206 34 -257 44 -315 57 -36 7 -108 19 -160 25 -52 6
-111 15 -130 20 -19 5 -93 14 -165 20 -71 6 -166 17 -210 24 -172 30 -962 41
-1435 20 -140 -7 -267 -16 -281 -22 -14 -6 -77 -13 -140 -17 -63 -4 -145 -14
-184 -22 -38 -8 -107 -18 -152 -23 -46 -5 -113 -15 -150 -24 -73 -17 -182 -39
-303 -61 -41 -7 -91 -18 -110 -24 -19 -6 -98 -26 -175 -45 -77 -19 -153 -39
-170 -45 -16 -5 -59 -19 -95 -29 -178 -53 -249 -76 -288 -93 -23 -10 -50 -19
-60 -19 -9 0 -30 -7 -47 -16 -16 -9 -48 -22 -70 -29 -193 -64 -445 -176 -445
-198 0 -22 14 -34 52 -46 21 -7 40 -17 43 -22 4 -5 13 -9 22 -9 9 0 61 -20
117 -44 136 -59 304 -126 342 -135 18 -5 42 -16 55 -25 13 -9 34 -16 47 -16
13 0 37 -7 55 -17 18 -9 52 -22 77 -29 25 -7 77 -24 115 -39 65 -24 134 -46
245 -76 25 -6 65 -20 90 -29 25 -10 61 -21 80 -25 19 -4 62 -16 94 -26 33 -10
69 -19 80 -19 12 0 33 -6 47 -14 14 -7 43 -16 65 -20 21 -3 73 -15 114 -26 41
-10 100 -24 130 -30 169 -34 241 -50 249 -54 4 -3 41 -10 82 -16 41 -6 92 -17
114 -25 22 -7 65 -16 95 -19 30 -3 107 -15 170 -25 203 -35 383 -60 463 -67
43 -3 93 -10 110 -15 18 -5 102 -14 187 -20 85 -5 211 -16 280 -24 69 -7 256
-17 415 -20 160 -4 298 -9 308 -11 26 -8 21 -23 -10 -30 -16 -4 -44 -15 -63
-24 -19 -10 -55 -21 -79 -25 -25 -4 -69 -16 -100 -26 -30 -11 -68 -19 -86 -19
-17 0 -65 -9 -106 -19 -41 -11 -103 -22 -139 -26 -36 -3 -117 -14 -180 -23
-167 -24 -973 -24 -1135 1 -60 9 -166 21 -235 27 -69 5 -150 17 -180 25 -30 8
-75 15 -100 15 -25 0 -73 7 -105 16 -33 8 -96 19 -140 25 -44 5 -93 14 -110
20 -16 6 -64 17 -105 24 -41 8 -100 20 -130 29 -30 8 -77 19 -105 25 -99 20
-181 40 -220 55 -22 8 -58 17 -80 21 -37 6 -130 32 -200 56 -16 6 -59 17 -95
25 -36 8 -79 21 -97 29 -17 8 -38 15 -48 15 -9 0 -30 7 -47 16 -17 9 -51 22
-77 29 -172 50 -407 131 -436 151 -11 8 -29 14 -40 14 -11 0 -29 6 -40 14 -11
7 -35 17 -54 21 -33 7 -119 42 -174 70 -16 8 -34 15 -40 15 -7 0 -34 11 -62
24 -27 13 -75 33 -105 46 -103 41 -305 145 -370 189 -297 201 -427 431 -364
642 18 60 28 85 46 114 7 11 23 34 34 53 44 68 191 205 289 269 44 29 199 109
261 134 21 9 67 29 100 43 34 14 67 26 73 26 7 0 29 9 49 20 20 10 80 32 132
49 52 16 109 34 125 40 70 23 203 61 235 67 19 3 40 10 45 14 6 4 73 22 150
40 77 18 157 38 178 46 20 8 50 14 66 14 16 0 73 11 127 25 54 14 109 25 121
25 12 0 48 7 80 16 32 8 92 19 133 24 41 4 109 15 150 24 41 9 92 16 113 16
21 0 82 9 135 19 53 10 153 24 222 30 69 6 139 15 155 20 17 6 104 15 195 20
91 6 201 15 245 20 44 6 181 15 305 21 124 6 277 15 340 20 156 12 784 12 895
0 50 -6 185 -14 300 -20 116 -5 266 -17 335 -25 69 -8 183 -19 253 -25 71 -5
133 -12 138 -16 5 -3 71 -12 147 -20 75 -8 171 -20 212 -28 41 -8 106 -18 145
-21 38 -4 80 -12 95 -17 14 -6 59 -14 101 -18 42 -5 96 -15 120 -23 24 -8 76
-18 114 -22 39 -4 85 -13 103 -21 18 -7 57 -16 85 -20 29 -3 81 -14 117 -25
36 -10 115 -30 175 -44 61 -15 124 -33 141 -40 16 -8 50 -17 75 -21 24 -4 55
-12 69 -19 14 -7 45 -16 70 -20 25 -4 54 -13 65 -19 11 -7 44 -19 74 -26 30
-7 66 -19 80 -26 14 -8 32 -14 39 -14 7 0 32 -8 55 -19 23 -10 58 -22 77 -26
19 -4 44 -14 55 -21 11 -8 26 -14 34 -14 8 0 33 -8 55 -18 23 -10 59 -27 81
-37 22 -9 78 -33 125 -52 98 -40 417 -198 440 -217 8 -8 42 -28 75 -45 102
-53 345 -220 465 -321 252 -209 469 -469 590 -706 21 -41 42 -80 48 -87 5 -6
16 -32 23 -57 7 -25 16 -50 21 -56 13 -18 48 -124 63 -189 7 -33 18 -76 23
-95 6 -19 18 -113 28 -209 22 -223 11 -429 -42 -746 -43 -260 -88 -495 -111
-585 -8 -30 -18 -75 -22 -100 -5 -25 -23 -97 -40 -160 -18 -63 -38 -140 -45
-170 -8 -30 -19 -68 -25 -85 -6 -16 -22 -70 -36 -120 -15 -49 -35 -112 -45
-140 -10 -27 -25 -72 -33 -100 -21 -69 -37 -113 -58 -161 -11 -23 -19 -47 -19
-54 0 -8 -8 -32 -18 -54 -10 -23 -29 -68 -41 -101 -23 -62 -60 -150 -92 -221
-11 -23 -19 -44 -19 -48 0 -3 -17 -41 -38 -84 -21 -43 -42 -90 -46 -105 -3
-15 -11 -27 -16 -27 -6 0 -10 -6 -10 -12 0 -13 -61 -139 -78 -161 -5 -7 -15
-27 -22 -46 -13 -31 -117 -226 -140 -261 -5 -8 -19 -33 -31 -55 -18 -33 -71
-118 -134 -216 -381 -591 -837 -1086 -1359 -1474 -63 -47 -117 -85 -121 -85
-4 0 -25 -15 -48 -34 -23 -18 -55 -41 -72 -50 -16 -9 -61 -37 -100 -61 -38
-25 -83 -52 -100 -60 -16 -9 -48 -26 -70 -40 -22 -13 -94 -51 -160 -85 -66
-34 -127 -66 -135 -70 -17 -10 -94 -45 -190 -85 -36 -15 -78 -33 -95 -41 -16
-7 -42 -16 -58 -19 -15 -4 -44 -16 -64 -26 -21 -10 -44 -19 -53 -19 -9 0 -24
-6 -35 -14 -11 -7 -36 -17 -55 -21 -19 -4 -54 -16 -77 -26 -23 -11 -50 -19
-60 -19 -10 0 -42 -9 -71 -20 -29 -11 -61 -20 -72 -20 -11 0 -41 -7 -67 -17
-59 -20 -189 -49 -307 -69 -48 -8 -97 -19 -107 -25 -11 -5 -63 -14 -117 -19
-53 -5 -113 -14 -134 -20 -20 -6 -98 -15 -175 -21 -76 -5 -167 -14 -203 -19
-36 -5 -211 -13 -390 -16 -260 -5 -356 -3 -480 9 -85 9 -220 21 -300 27 -80 6
-170 18 -201 26 -31 8 -72 14 -91 14 -57 0 -432 78 -533 111 -33 10 -71 19
-83 19 -13 0 -38 7 -55 15 -18 8 -50 19 -72 24 -65 16 -266 86 -307 107 -14 8
-31 14 -38 14 -12 0 -139 52 -172 70 -10 6 -22 10 -28 10 -11 0 -280 133 -350
174 -25 14 -55 30 -68 36 -36 16 -193 111 -233 142 -20 15 -39 28 -42 28 -3 0
-31 18 -63 40 -33 23 -76 52 -97 66 -21 13 -65 46 -98 72 -33 26 -77 60 -97
75 -20 16 -50 40 -67 55 -16 15 -57 50 -90 77 -199 167 -396 370 -620 636 -88
104 -259 328 -300 391 -13 21 -33 50 -44 65 -48 70 -153 236 -197 313 -26 47
-53 92 -60 100 -7 8 -29 47 -49 85 -19 39 -45 84 -56 100 -10 17 -22 39 -26
50 -6 17 -32 69 -82 163 -5 9 -31 62 -56 117 -26 55 -55 118 -65 140 -42 90
-78 174 -104 242 -15 40 -32 75 -37 79 -5 3 -9 12 -9 21 0 8 -6 29 -14 46 -8
18 -21 52 -29 77 -9 25 -36 101 -62 170 -26 69 -52 143 -59 165 -7 22 -18 54
-25 70 -7 17 -17 52 -22 79 -5 28 -16 60 -24 73 -8 12 -15 30 -15 39 0 31 -59
189 -103 279 -50 99 -135 209 -200 256 -23 18 -76 48 -117 68 l-75 36 -495 0
-495 0 -65 -32 c-125 -61 -189 -136 -239 -281 -28 -83 -29 -237 -2 -337 25
-91 58 -238 66 -295 3 -24 10 -49 15 -55 5 -6 16 -40 24 -76 27 -118 33 -137
107 -384 22 -71 43 -134 78 -228 10 -28 26 -72 34 -97 33 -101 36 -109 96
-243 11 -26 21 -53 21 -59 0 -6 11 -34 24 -62 13 -28 36 -82 51 -120 15 -38
33 -76 41 -83 8 -8 14 -22 14 -31 0 -9 29 -76 65 -149 36 -73 65 -139 65 -147
0 -7 7 -19 15 -26 8 -6 17 -21 21 -32 3 -11 32 -66 63 -121 31 -56 72 -133 91
-170 18 -37 37 -70 42 -73 5 -3 15 -20 24 -37 8 -18 26 -50 39 -72 13 -22 34
-56 45 -75 36 -62 47 -79 159 -243 14 -21 33 -49 41 -62 8 -13 33 -49 56 -82
22 -32 61 -87 85 -123 24 -36 78 -108 119 -160 41 -52 87 -111 102 -130 149
-193 344 -410 578 -642 309 -308 506 -476 848 -730 21 -15 98 -68 172 -118 74
-49 144 -99 155 -110 12 -11 28 -20 36 -20 9 0 24 -9 33 -19 10 -11 31 -25 47
-31 16 -7 29 -16 29 -21 0 -4 9 -10 20 -14 10 -3 97 -50 192 -104 95 -54 185
-104 201 -112 125 -64 311 -154 392 -189 28 -11 68 -30 90 -40 79 -36 163 -70
175 -70 6 0 24 -7 38 -15 15 -7 63 -26 107 -40 44 -15 98 -35 121 -46 22 -10
47 -19 56 -19 8 0 37 -9 64 -19 27 -11 90 -32 139 -46 50 -15 108 -33 130 -40
22 -7 58 -16 80 -20 22 -4 66 -15 98 -26 31 -10 65 -19 76 -19 10 0 38 -7 62
-15 23 -9 74 -20 113 -26 39 -5 82 -14 96 -19 14 -6 68 -16 120 -24 52 -8 118
-19 145 -25 56 -12 250 -37 395 -51 233 -23 333 -32 440 -40 146 -11 542 -11
685 0 61 4 207 15 325 24 118 8 253 22 300 30 47 8 114 17 150 21 36 3 108 14
160 25 130 25 192 37 282 55 43 8 99 21 125 29 69 20 127 35 216 56 43 10 96
25 118 34 21 9 50 16 63 16 12 0 26 3 30 7 10 10 79 33 101 33 11 0 37 9 58
20 20 11 45 20 54 20 9 0 35 9 57 19 23 11 84 34 135 51 52 17 128 47 169 66
41 19 82 34 91 34 9 0 28 8 41 17 14 10 59 32 100 49 79 33 338 159 400 194
166 95 212 120 220 120 6 0 18 8 28 18 9 9 28 23 42 30 54 29 88 49 147 90 34
23 67 42 72 42 6 0 11 4 11 9 0 5 21 22 48 37 26 16 54 33 64 39 24 15 114 81
276 202 121 91 327 259 392 319 289 269 355 333 430 414 47 51 108 115 135
144 104 107 234 265 459 561 42 55 82 107 89 115 13 16 85 120 102 149 6 9 38
57 73 108 34 51 62 95 62 98 0 3 15 27 33 53 18 26 50 77 70 114 20 36 40 68
45 70 7 3 12 11 85 148 22 41 48 91 59 110 81 153 128 245 128 253 0 6 6 18
14 26 7 9 28 50 45 91 18 41 36 82 41 90 6 8 15 26 20 40 10 24 25 56 69 151
11 25 21 49 21 53 0 8 45 109 66 148 8 14 14 34 14 43 0 16 29 90 65 170 8 17
17 44 21 60 4 17 13 39 20 50 7 11 18 40 24 65 7 24 18 53 26 64 8 11 14 27
14 35 0 13 31 84 71 163 10 20 19 46 19 57 0 11 5 23 11 27 6 3 20 25 30 48
11 22 24 48 29 56 38 63 100 171 100 174 0 3 13 24 29 48 107 163 128 194 146
218 165 227 464 525 675 673 129 90 211 141 263 164 20 9 37 20 37 25 0 4 5 8
11 8 14 0 158 71 165 81 3 5 15 9 27 9 12 0 45 12 72 25 28 14 58 25 68 25 10
0 28 5 40 12 117 62 553 103 737 69 172 -32 330 -110 450 -221 43 -39 117
-136 125 -162 4 -13 13 -30 20 -38 18 -21 60 -150 81 -245 24 -105 24 -305 0
-393 -9 -35 -16 -73 -16 -85 0 -12 -12 -47 -26 -77 -28 -58 -43 -93 -68 -150
-17 -37 -16 -37 -90 -150 -84 -129 -124 -177 -286 -340 -114 -115 -247 -234
-339 -302 -77 -57 -184 -128 -194 -128 -6 0 -18 -6 -26 -14 -17 -14 -100 -59
-141 -76 -14 -5 -32 -15 -41 -22 -16 -11 -49 -5 -49 9 0 8 35 46 195 213 95
100 268 307 325 390 13 19 28 37 32 38 4 2 8 8 8 12 0 5 31 56 69 113 99 146
103 181 18 152 -21 -7 -59 -16 -85 -20 -26 -4 -55 -11 -64 -16 -10 -5 -43 -14
-73 -20 -30 -5 -67 -16 -82 -24 -16 -8 -33 -15 -40 -15 -15 0 -173 -49 -194
-60 -8 -4 -58 -22 -110 -40 -52 -17 -112 -40 -134 -50 -284 -128 -462 -223
-620 -332 -162 -111 -197 -137 -279 -208 -23 -20 -61 -52 -86 -72 -48 -38
-272 -258 -355 -349 -143 -155 -285 -328 -408 -494 -163 -220 -198 -269 -258
-367 -22 -37 -47 -72 -55 -79 -8 -6 -14 -16 -14 -22 0 -5 -17 -35 -37 -66 -21
-31 -45 -68 -53 -83 -48 -87 -135 -235 -145 -248 -7 -8 -16 -25 -20 -38 -4
-13 -25 -55 -46 -93 -48 -83 -48 -115 -4 -112 133 7 301 25 355 37 36 8 101
19 145 25 101 12 303 49 318 58 5 3 51 14 101 24 169 33 477 115 541 145 17 7
48 18 70 23 57 14 156 49 187 66 14 8 35 15 45 15 10 0 27 6 38 14 11 8 40 20
65 27 25 7 59 21 75 31 17 10 37 18 46 18 9 0 22 6 28 14 7 8 24 17 39 21 50
12 441 214 470 242 7 7 17 13 22 13 16 0 358 244 385 274 6 6 30 27 55 46 69
53 86 68 194 165 96 85 342 328 378 373 9 11 52 61 95 109 90 101 235 292 284
373 18 30 43 69 56 86 13 17 23 34 23 39 0 4 15 31 34 59 18 28 59 105 91 171
31 66 63 133 71 148 8 16 14 36 14 46 0 9 6 25 14 36 8 11 19 40 26 65 7 25
19 59 26 77 8 17 14 38 14 47 0 9 9 43 20 75 10 32 24 100 31 152 6 52 15 102
20 111 17 31 12 434 -6 533 -9 50 -20 118 -24 153 -4 34 -12 67 -19 74 -7 7
-12 26 -12 43 0 30 -47 166 -75 217 -8 14 -15 34 -15 44 0 9 -6 25 -13 33 -8
9 -20 32 -27 51 -7 19 -18 40 -24 45 -6 6 -26 39 -45 74 -54 101 -107 177
-206 296 -123 147 -180 204 -308 305 -32 25 -76 60 -98 78 -23 17 -45 32 -51
32 -5 0 -24 11 -42 25 -81 62 -422 225 -470 225 -6 0 -24 7 -41 16 -16 9 -50
19 -75 24 -25 4 -88 17 -140 28 -193 42 -243 47 -455 47 -213 -1 -322 -11
-495 -47 -52 -11 -116 -24 -141 -28 -26 -5 -55 -13 -65 -19 -11 -5 -41 -17
-69 -25 -69 -20 -158 -52 -181 -64 -10 -6 -48 -22 -84 -37 -36 -15 -97 -43
-136 -61 -83 -40 -101 -42 -113 -11 -14 33 -71 279 -71 303 0 11 -7 29 -15 40
-8 10 -15 27 -15 37 0 17 -55 190 -80 252 -19 47 -59 134 -96 209 -19 37 -34
73 -34 79 0 5 -11 25 -25 43 -14 18 -25 38 -25 45 0 7 -6 20 -14 28 -7 9 -26
41 -42 71 -15 30 -35 63 -43 73 -9 10 -24 34 -36 52 -134 226 -473 612 -715
814 -41 34 -88 75 -105 90 -72 67 -323 247 -518 373 -63 40 -216 128 -224 128
-3 0 -14 7 -23 15 -18 16 -69 44 -260 140 -63 32 -122 62 -130 67 -14 7 -27
13 -85 39 -11 5 -27 13 -35 18 -24 15 -147 71 -155 71 -7 0 -35 12 -121 51
-22 11 -44 19 -48 19 -8 0 -53 19 -163 66 -17 8 -38 14 -47 14 -8 0 -35 9 -58
19 -63 28 -149 59 -183 67 -16 4 -35 11 -42 16 -6 5 -39 16 -73 24 -34 8 -74
21 -90 29 -16 8 -38 15 -50 15 -12 0 -34 7 -51 15 -16 9 -54 20 -84 26 -30 5
-67 16 -82 24 -16 8 -37 15 -48 15 -11 0 -58 11 -105 24 -130 37 -241 65 -287
71 -24 4 -45 10 -48 15 -3 5 -38 13 -78 20 -39 6 -92 18 -117 25 -25 8 -78 19
-119 25 -40 6 -81 14 -90 19 -9 5 -43 12 -76 16 -33 3 -91 12 -130 20 -38 7
-97 17 -130 20 -33 4 -98 15 -145 25 -47 10 -122 21 -167 25 -46 3 -98 11
-115 16 -18 5 -107 16 -198 24 -91 9 -190 20 -220 25 -30 5 -143 14 -250 20
-107 6 -235 15 -285 21 -88 9 -1081 20 -1160 13z"/>
<path d="M25595 11102 c-62 -21 -89 -40 -120 -82 -113 -152 -60 -448 129 -733
182 -274 493 -487 711 -487 301 0 708 365 853 765 43 119 55 292 26 378 -23
68 -84 132 -150 156 -69 26 -130 26 -218 1 -144 -41 -285 -130 -424 -267 -46
-46 -86 -83 -88 -83 -2 0 -42 38 -89 85 -138 137 -277 224 -421 265 -84 24
-143 25 -209 2z"/>
<path d="M26055 9604 c-316 -25 -833 -141 -1040 -234 -11 -5 -49 -21 -85 -36
-231 -94 -392 -221 -469 -369 -63 -121 -62 -269 2 -390 37 -70 138 -175 218
-228 299 -195 822 -336 1439 -388 150 -13 458 -7 585 12 327 46 633 126 840
218 176 79 415 207 415 223 0 11 -175 112 -276 159 -441 206 -860 299 -1344
299 -350 0 -577 -35 -885 -135 -160 -53 -252 -92 -239 -104 25 -24 351 -142
509 -185 59 -16 182 -44 280 -64 158 -33 504 -72 645 -72 93 0 80 -11 -50 -42
-86 -21 -119 -23 -350 -23 -259 0 -316 6 -525 51 -173 37 -453 120 -542 160
-17 8 -35 14 -41 14 -17 0 -207 86 -247 113 -77 50 -127 107 -139 160 -21 87
59 189 196 251 112 51 114 52 188 74 330 99 636 145 1065 158 612 19 1237 -97
1624 -303 287 -152 459 -362 492 -601 14 -99 5 -199 -33 -397 -88 -457 -272
-863 -530 -1170 -240 -285 -556 -484 -913 -574 -179 -45 -280 -56 -515 -55
-244 1 -373 17 -557 70 -437 125 -794 413 -1046 843 -107 182 -172 327 -251
564 -53 158 -80 206 -138 244 l-42 28 -182 0 c-206 0 -217 -3 -261 -81 -34
-58 -31 -96 23 -299 172 -647 563 -1208 1089 -1562 147 -99 332 -196 466 -244
35 -12 69 -25 74 -29 10 -7 215 -64 320 -89 85 -21 385 -51 503 -51 190 0 494
38 637 81 17 4 64 18 105 30 106 31 226 80 365 151 223 112 403 245 601 442
208 208 367 430 500 696 65 131 73 151 149 345 116 294 287 495 525 615 97 49
182 70 282 70 107 0 176 -23 232 -77 62 -61 81 -112 81 -223 0 -82 -4 -103
-26 -150 -40 -83 -112 -173 -200 -249 -74 -64 -194 -139 -206 -128 -2 3 29 41
69 85 75 80 175 218 165 228 -18 18 -292 -76 -417 -143 -206 -111 -435 -349
-609 -636 -40 -66 -101 -176 -101 -183 0 -10 106 -2 200 16 251 46 392 91 586
186 264 131 537 399 661 649 65 129 77 187 78 345 0 127 -3 154 -23 213 -78
225 -235 381 -477 475 -39 15 -196 42 -245 42 -102 0 -281 -45 -381 -96 l-49
-24 -9 22 c-5 13 -12 39 -15 58 -46 230 -221 493 -451 679 -297 242 -758 427
-1265 510 -285 47 -360 53 -675 56 -170 1 -332 1 -360 -1z"/>
</g>
</svg>
