<?xml version="1.0" standalone="no"?>
<!DOCTYPE svg PUBLIC "-//W3C//DTD SVG 20010904//EN"
 "http://www.w3.org/TR/2001/REC-SVG-20010904/DTD/svg10.dtd">
<svg version="1.0" xmlns="http://www.w3.org/2000/svg"
 width="1536.000000pt" height="1024.000000pt" viewBox="0 0 1536.000000 1024.000000"
 preserveAspectRatio="xMidYMid meet">

<g transform="translate(0.000000,1024.000000) scale(0.100000,-0.100000)"
fill="#000000" stroke="none">
<path d="M10725 8203 c-168 -60 -248 -246 -176 -408 27 -62 85 -121 147 -150
l54 -26 0 -229 0 -230 -493 0 c-404 0 -503 -3 -550 -15 -186 -48 -328 -192
-372 -376 -9 -39 -15 -113 -15 -186 l0 -123 -48 0 c-61 0 -129 -41 -169 -101
-27 -42 -28 -46 -31 -208 -2 -105 1 -180 8 -204 23 -76 111 -149 199 -163 l41
-7 0 -121 c0 -197 39 -310 146 -425 42 -46 77 -72 142 -104 l85 -42 239 -3
238 -3 0 -100 0 -99 -319 0 c-290 0 -325 -2 -383 -20 -132 -41 -253 -144 -315
-267 l-36 -73 -57 0 c-229 0 -383 -120 -423 -330 l-11 -58 -156 -4 c-145 -3
-158 -5 -206 -30 -60 -31 -109 -84 -138 -147 -18 -40 -21 -70 -24 -223 -3
-135 -7 -178 -17 -178 -23 0 -108 -84 -126 -125 -16 -34 -19 -68 -19 -243 0
-152 4 -211 14 -236 19 -45 79 -111 115 -126 l30 -12 3 -291 c3 -272 4 -295
24 -338 30 -63 79 -116 138 -147 l51 -27 793 -5 793 -5 5 -105 c6 -121 23
-198 59 -271 50 -98 149 -183 260 -225 46 -17 92 -18 540 -22 533 -4 581 0
680 48 81 40 131 82 177 154 56 87 79 169 86 311 l5 120 66 32 c120 58 232
171 300 302 39 75 71 176 71 224 0 21 14 32 87 73 190 106 377 272 483 428
177 264 266 638 216 911 -26 138 -95 272 -189 366 -84 85 -172 141 -270 171
-42 12 -70 27 -73 37 -12 41 -68 142 -99 179 -46 53 -127 106 -203 131 -57 19
-84 21 -352 21 l-290 0 0 100 0 100 209 0 c181 0 218 3 274 20 124 38 232 129
296 249 51 96 62 144 68 297 l6 142 44 5 c62 7 132 53 168 111 l30 49 3 176 3
176 -31 53 c-25 43 -41 58 -83 78 -29 13 -71 24 -94 24 l-43 0 0 118 c0 141
-18 231 -62 315 -39 74 -134 171 -204 209 -101 55 -135 58 -666 58 l-488 0 0
233 0 233 37 13 c55 20 136 106 156 165 21 62 22 158 1 219 -48 141 -222 229
-359 180z m1229 -1242 c68 -34 122 -91 159 -169 l32 -67 0 -600 c0 -541 -2
-604 -17 -643 -41 -103 -124 -184 -223 -219 -47 -17 -120 -18 -1110 -18
l-1060 0 -55 26 c-69 33 -133 97 -168 169 l-27 55 0 615 c0 574 1 618 18 660
40 96 116 172 206 205 29 11 234 13 1116 12 l1080 -2 49 -24z m148 -2269 c60
-30 112 -89 140 -161 25 -66 31 -218 17 -492 -25 -525 -124 -767 -359 -883
-110 -54 -167 -66 -312 -66 l-126 0 -17 50 c-21 64 -88 132 -152 154 -25 9
-73 16 -105 16 l-58 0 0 283 c0 317 -5 352 -64 428 -18 25 -58 58 -87 74 l-54
30 -835 5 -835 5 -3 85 c-4 110 13 232 43 296 43 97 137 173 237 194 24 4 601
8 1283 7 l1240 -2 47 -23z m-3012 -452 l0 -110 -145 0 -145 0 0 28 c0 41 44
126 78 150 36 26 89 40 160 41 l52 1 0 -110z m3418 83 c81 -38 180 -140 222
-227 50 -106 67 -227 52 -375 -38 -379 -213 -674 -516 -873 l-91 -60 -3 177
-2 178 40 51 c86 112 153 300 184 516 17 119 36 397 36 543 0 62 4 97 11 97 5
0 36 -12 67 -27z m-1590 -383 c59 -36 62 -57 62 -379 l0 -289 -25 -16 c-104
-68 -139 -211 -81 -330 16 -32 45 -70 67 -88 l39 -31 0 -271 c0 -251 -2 -273
-20 -303 -10 -18 -31 -40 -47 -50 -26 -17 -90 -18 -1293 -18 -1192 0 -1267 1
-1297 18 -67 36 -68 41 -71 348 l-3 277 26 6 c14 4 46 26 70 51 68 67 78 115
73 343 -3 168 -6 191 -25 227 -26 49 -78 100 -116 114 l-29 11 4 153 c3 121 7
159 21 184 36 66 -57 62 1342 63 1257 0 1270 0 1303 -20z m1090 -1142 c-5
-194 -8 -220 -32 -294 -45 -141 -145 -259 -274 -323 -91 -46 -180 -60 -407
-66 -118 -3 -215 -3 -215 0 0 3 10 25 23 48 21 40 22 54 25 325 l3 282 63 0
c101 0 183 39 229 109 24 37 25 37 82 33 136 -8 361 33 454 83 55 30 54 33 49
-197z"/>
<path d="M10153 6509 c-141 -26 -237 -146 -237 -294 1 -222 225 -362 415 -259
99 54 153 150 152 270 -1 173 -165 314 -330 283z"/>
<path d="M11373 6509 c-182 -33 -289 -241 -211 -410 33 -72 66 -109 127 -143
67 -36 140 -44 216 -21 80 23 166 107 189 185 65 219 -107 428 -321 389z"/>
<path d="M10456 5639 c-31 -25 -34 -66 -7 -100 l19 -24 340 0 c320 0 341 1
361 19 13 12 21 31 21 50 -1 74 -10 76 -383 76 -313 0 -325 -1 -351 -21z"/>
<path d="M9617 3479 c-240 -56 -344 -418 -202 -706 60 -122 155 -181 275 -170
119 10 205 87 260 232 28 76 39 244 21 337 -41 209 -196 343 -354 307z m113
-171 c58 -30 86 -85 101 -197 19 -143 -12 -266 -81 -325 -45 -38 -125 -37
-171 1 -43 36 -68 97 -78 189 -19 162 22 294 103 334 52 26 71 25 126 -2z"/>
<path d="M8924 3373 c-31 -54 -105 -180 -165 -280 -106 -178 -109 -184 -109
-242 l0 -61 188 -2 187 -3 3 -83 3 -83 67 3 67 3 3 83 3 84 54 -4 55 -3 0 73
0 72 -55 0 -55 0 -2 58 c-1 31 -2 69 -2 84 -1 26 -3 27 -68 30 l-68 3 0 -87 0
-88 -95 0 c-52 0 -95 3 -95 6 0 3 35 65 79 138 81 135 162 279 200 354 l21 42
-79 0 -80 0 -57 -97z"/>
<path d="M10280 3288 c-57 -99 -129 -224 -161 -275 -56 -90 -59 -97 -59 -159
l0 -64 185 0 185 0 0 -85 0 -85 70 0 69 0 3 83 3 82 58 3 57 3 0 69 0 70 -60
0 -60 0 0 88 0 87 -67 -1 -68 -2 -3 -86 -3 -86 -95 0 c-73 0 -93 3 -88 13 4 6
26 41 49 77 50 79 124 209 198 348 l55 102 -83 0 -83 0 -102 -182z"/>
<path d="M4700 8179 c-342 -89 -583 -388 -680 -844 -30 -142 -39 -499 -16
-671 59 -444 246 -756 541 -899 110 -53 186 -74 308 -82 336 -22 624 143 806
461 55 97 105 238 137 389 22 103 27 157 31 344 6 236 -3 351 -38 503 -66 288
-201 519 -382 656 -80 60 -222 128 -314 148 -103 23 -296 21 -393 -5z m375
-437 c173 -82 280 -275 320 -580 24 -178 17 -405 -16 -557 -63 -291 -209 -471
-410 -507 -266 -47 -476 175 -534 567 -19 128 -19 410 -1 535 38 247 143 450
273 526 73 43 120 54 215 50 71 -3 98 -9 153 -34z"/>
<path d="M2475 7628 c-170 -293 -380 -655 -467 -805 l-158 -272 0 -173 0 -173
580 2 580 2 0 -240 0 -239 208 0 207 0 0 236 0 236 133 1 132 1 0 203 0 203
-135 0 -136 0 1 248 1 247 -205 3 -206 2 0 -250 0 -250 -315 0 -316 0 12 23
c7 12 100 173 206 357 107 184 221 380 253 435 308 532 386 665 407 698 l23
37 -248 0 -248 0 -309 -532z"/>
<path d="M7025 8023 c-90 -158 -281 -485 -619 -1062 l-236 -404 0 -176 0 -176
580 2 580 3 0 -240 0 -240 205 0 205 0 2 236 3 236 133 -1 132 0 0 205 0 204
-135 0 -135 0 0 250 0 250 -205 0 -205 0 0 -250 0 -250 -315 0 c-173 0 -315 2
-315 5 0 3 103 182 228 398 126 215 289 496 362 622 73 127 171 294 217 373
45 78 83 145 83 147 0 3 -109 5 -243 5 l-242 0 -80 -137z"/>
<path d="M5589 5081 c-26 -26 -29 -36 -29 -90 l0 -61 -32 0 c-31 0 -33 -2 -32
-32 1 -29 4 -33 32 -36 l32 -3 0 -155 0 -154 40 0 40 0 0 155 0 155 55 0 55 0
0 35 0 35 -55 0 -55 0 0 38 c0 48 14 62 62 62 37 0 38 1 38 34 0 38 -15 46
-83 46 -29 0 -46 -7 -68 -29z"/>
<path d="M7382 5000 c2 -55 1 -99 -2 -97 -52 31 -106 48 -139 42 -89 -17 -143
-82 -149 -180 -9 -137 61 -225 178 -225 51 0 110 22 110 40 0 6 5 10 10 10 6
0 10 -9 10 -20 0 -16 7 -20 35 -20 l35 0 0 275 0 275 -46 0 -45 0 3 -100z
m-32 -168 c67 -68 41 -192 -44 -208 -107 -19 -170 134 -86 209 42 37 92 37
130 -1z"/>
<path d="M2330 4816 l0 -266 45 0 45 0 0 89 0 88 83 5 c92 5 135 23 171 71 31
42 30 159 -2 205 -40 55 -72 66 -214 70 l-128 4 0 -266z m251 155 c38 -39 40
-96 4 -135 -22 -23 -31 -26 -95 -26 l-70 0 0 95 0 95 66 0 c59 0 68 -3 95 -29z"/>
<path d="M5090 4990 c0 -57 -1 -60 -25 -60 -22 0 -25 -4 -25 -35 0 -31 3 -35
25 -35 25 0 25 0 25 -97 0 -129 8 -168 38 -198 19 -19 35 -25 68 -25 65 0 74
7 74 52 0 38 -1 39 -29 33 -51 -11 -61 11 -61 131 l0 104 45 0 c45 0 45 0 45
35 0 35 0 35 -45 35 l-45 0 0 60 0 60 -45 0 -45 0 0 -60z"/>
<path d="M2850 4935 c-25 -9 -55 -24 -68 -35 l-23 -19 22 -30 22 -30 25 19
c17 14 40 20 73 20 39 0 51 -4 68 -26 12 -15 21 -36 21 -48 0 -20 -4 -21 -77
-18 -100 4 -142 -15 -161 -72 -16 -50 -2 -95 39 -131 39 -32 118 -35 167 -5
26 16 32 17 32 5 0 -11 11 -15 40 -15 l40 0 0 148 c0 128 -3 151 -20 179 -36
59 -121 84 -200 58z m135 -225 c10 -16 -15 -79 -35 -90 -47 -25 -120 1 -120
42 0 40 28 58 91 58 32 0 61 -5 64 -10z"/>
<path d="M3268 4940 c-132 -40 -178 -224 -81 -331 19 -21 50 -43 70 -50 47
-15 114 -7 152 20 l31 22 0 -40 c0 -27 -7 -48 -23 -67 -33 -37 -114 -45 -179
-16 l-45 20 -17 -35 -16 -34 46 -20 c104 -47 213 -32 273 36 44 51 51 90 51
298 l0 187 -40 0 c-34 0 -40 -3 -40 -22 0 -20 -1 -20 -19 -4 -23 21 -87 45
-116 45 -11 -1 -32 -4 -47 -9z m133 -108 c24 -21 32 -38 35 -72 6 -57 -11 -90
-59 -113 -66 -33 -134 5 -144 82 -15 108 90 172 168 103z"/>
<path d="M3775 4944 c-6 -1 -27 -5 -47 -9 -78 -13 -137 -96 -138 -193 0 -127
74 -202 200 -202 57 0 129 24 144 48 3 5 -7 21 -22 35 -28 27 -28 27 -70 10
-67 -26 -139 4 -154 65 -2 11 24 13 130 12 153 -1 152 -2 132 87 -9 41 -22 65
-49 92 -34 34 -98 62 -126 55z m45 -89 c31 -16 50 -43 50 -69 0 -13 -16 -16
-96 -16 -94 0 -95 0 -88 23 12 40 53 74 92 76 7 1 26 -6 42 -14z"/>
<path d="M4758 4941 c-143 -46 -194 -225 -96 -337 43 -49 81 -66 148 -66 67 0
105 17 148 66 109 124 30 329 -131 342 -23 2 -54 -1 -69 -5z m100 -95 c55 -28
75 -122 38 -178 -35 -53 -112 -60 -154 -15 -92 98 1 252 116 193z"/>
<path d="M5916 4936 c-156 -58 -172 -302 -24 -377 90 -46 202 -18 255 63 25
36 28 51 28 119 0 70 -3 81 -30 120 -51 72 -149 104 -229 75z m122 -92 c49
-34 66 -109 37 -164 -16 -30 -61 -60 -90 -60 -29 0 -74 30 -90 60 -8 16 -15
48 -15 71 0 81 95 138 158 93z"/>
<path d="M4336 4915 c-44 -30 -46 -30 -46 -5 0 17 -7 20 -40 20 l-40 0 0 -190
0 -190 45 0 45 0 0 130 c0 126 1 132 25 155 30 31 73 32 109 4 26 -20 26 -22
26 -155 l0 -134 46 0 46 0 -4 148 c-3 164 -10 185 -71 222 -44 27 -96 25 -141
-5z"/>
<path d="M6795 4909 l-35 -31 0 26 c0 24 -4 26 -40 26 l-40 0 0 -190 0 -190
45 0 45 0 0 130 c0 126 1 132 25 155 15 16 36 25 55 25 19 0 40 -9 55 -25 24
-23 25 -29 25 -155 l0 -130 44 0 43 0 -3 145 c-4 162 -13 193 -67 225 -50 31
-109 26 -152 -11z"/>
<path d="M6250 4789 c0 -159 11 -198 64 -230 53 -32 163 -18 179 23 3 7 6 3 6
-9 1 -20 6 -23 41 -23 l40 0 0 190 0 190 -42 0 -43 0 0 -131 0 -131 -28 -24
c-36 -31 -71 -31 -102 1 -24 23 -25 29 -25 155 l0 130 -45 0 -45 0 0 -141z"/>
</g>
</svg>
